<?xml version="1.0" encoding="UTF-8" standalone="no"?>
<!-- Created with Inkscape (http://www.inkscape.org/) -->

<svg
   width="32.401321mm"
   height="32.401321mm"
   viewBox="0 0 32.401321 32.401321"
   version="1.1"
   id="svg1"
   xmlns="http://www.w3.org/2000/svg"
   xmlns:svg="http://www.w3.org/2000/svg">
  <defs
     id="defs1" />
  <g
     id="layer1"
     transform="translate(-29.780382,-53.709293)">
    <path
       style="fill:none;fill-opacity:0.141093;stroke:#9163f5;stroke-width:2.063;stroke-dashoffset:171.736;stroke-opacity:1;paint-order:fill markers stroke"
       id="path1"
       d="m 61.464457,67.094784 -13.297258,-4.299885 13.40938,9.222307 -11.317706,-8.198513 9.903229,12.914662 -8.230299,-11.294613 5.42768,15.342839 -4.337251,-13.285117 0.420832,16.269153 -0.01964,-13.975182 -4.627209,15.602928 4.299885,-13.297259 -9.222307,13.409381 8.198513,-11.317707 -12.914662,9.903229 11.294613,-8.230298 -15.342839,5.42768 13.285117,-4.337252 -16.269153,0.420833 13.975183,-0.01965 -15.602929,-4.627209 13.297259,4.299886 -13.409381,-9.222308 11.317707,8.198514 -9.903229,-12.914662 8.230299,11.294613 -5.427681,-15.34284 4.337252,13.285118 -0.420833,-16.269153 0.01965,13.975182 4.627209,-15.602928 -4.299886,13.297258 9.222308,-13.40938 -8.198514,11.317706 12.914662,-9.903229 -11.294613,8.230299 15.34284,-5.42768 -13.285118,4.337251 16.269153,-0.420832 -13.975182,0.01964 z" />
  </g>
</svg>
